<svg width="563" height="472" viewBox="0 0 563 472" fill="none" xmlns="http://www.w3.org/2000/svg">
<path d="M2.16699 471C3.97556 385.771 25.9632 250.971 197.098 211.092C254.577 200.263 267.906 201.096 358.707 196.931C444.51 190.266 520.649 167.941 561.968 2" stroke="#36D6AD" stroke-width="2"/>
<path d="M530.812 1C519.318 58.6077 443.509 174.142 232.226 175.416C130.745 178.274 14.5078 224.083 2.08985 378.409V435.845C0.607117 415.209 0.666621 396.096 2.08985 378.409V1H530.812Z" fill="#36D6AD"/>
<path d="M530.812 1C519.318 58.6077 443.509 174.142 232.226 175.416C119.114 178.602 -12.33 235.148 2.08985 435.845V1H530.812Z" stroke="#36D6AD"/>
</svg>
